HIERARCHY
ROOT RootJoint
{
    OFFSET   0.000000   0.000000   0.000000
    CHANNELS 6 Xposition Yposition Zposition Xrotation Yrotation Zrotation
    JOINT pelvis_lowerback
    {
        OFFSET   0.000000   0.093605   0.000000
        CHANNELS 3 Xrotation Yrotation Zrotation
        JOINT lowerback_torso
        {
            OFFSET   0.000000   0.100000   0.000000
            CHANNELS 3 Xrotation Yrotation Zrotation
            JOINT torso_head
            {
                OFFSET   0.000000   0.282350   0.000000
                CHANNELS 3 Xrotation Yrotation Zrotation
                End Site
                {
                    OFFSET   0.000000   0.192650   0.000000
                }
            }
            JOINT rTorso_Clavicle
            {
                OFFSET  -0.001000   0.157500   0.000000
                CHANNELS 3 Xrotation Yrotation Zrotation
                JOINT rShoulder
                {
                    OFFSET  -0.117647   0.000000   0.000000
                    CHANNELS 3 Xrotation Yrotation Zrotation
                    JOINT rElbow
                    {
                        OFFSET  -0.245000   0.000000   0.000000
                        CHANNELS 3 Xrotation Yrotation Zrotation
                        JOINT rWrist
                        {
                            OFFSET  -0.240000   0.000000   0.000000
                            CHANNELS 3 Xrotation Yrotation Zrotation
                            End Site
                            {
                                OFFSET  -0.116353  -0.002500   0.000000
                            }
                        }
                    }
                }
            }
            JOINT lTorso_Clavicle
            {
                OFFSET   0.001000   0.157500   0.000000
                CHANNELS 3 Xrotation Yrotation Zrotation
                JOINT lShoulder
                {
                    OFFSET   0.117647   0.000000   0.000000
                    CHANNELS 3 Xrotation Yrotation Zrotation
                    JOINT lElbow
                    {
                        OFFSET   0.245000   0.000000   0.000000
                        CHANNELS 3 Xrotation Yrotation Zrotation
                        JOINT lWrist
                        {
                            OFFSET   0.240000   0.000000   0.000000
                            CHANNELS 3 Xrotation Yrotation Zrotation
                            End Site
                            {
                                OFFSET   0.116353  -0.002500   0.000000
                            }
                        }
                    }
                }
            }
        }
    }
    JOINT rHip
    {
        OFFSET  -0.100000  -0.051395   0.000000
        CHANNELS 3 Xrotation Yrotation Zrotation
        JOINT rKnee
        {
            OFFSET   0.000000  -0.410000   0.000000
            CHANNELS 3 Xrotation Yrotation Zrotation
            JOINT rAnkle
            {
                OFFSET   0.000000  -0.390000   0.000000
                CHANNELS 3 Xrotation Yrotation Zrotation
                JOINT rToeJoint
                {
                    OFFSET   0.000000  -0.050000   0.130000
                    CHANNELS 3 Xrotation Yrotation Zrotation
                    End Site
                    {
                        OFFSET  -0.010000   0.002000   0.060000
                    }
                }
            }
        }
    }
    JOINT lHip
    {
        OFFSET   0.100000  -0.051395   0.000000
        CHANNELS 3 Xrotation Yrotation Zrotation
        JOINT lKnee
        {
            OFFSET   0.000000  -0.410000   0.000000
            CHANNELS 3 Xrotation Yrotation Zrotation
            JOINT lAnkle
            {
                OFFSET   0.000000  -0.390000   0.000000
                CHANNELS 3 Xrotation Yrotation Zrotation
                JOINT lToeJoint
                {
                    OFFSET   0.000000  -0.050000   0.130000
                    CHANNELS 3 Xrotation Yrotation Zrotation
                    End Site
                    {
                        OFFSET   0.010000   0.002000   0.060000
                    }
                }
            }
        }
    }
}
MOTION
Frames: 5
Frame Time:   0.008333
 -2.345785   1.032176   4.053645   4.859969   8.731699  -1.532338  -0.459092   3.759303  -0.768964   0.729121  -1.994524   0.361499  -4.152297  -0.149249  -2.017294   4.144829   0.961271  -4.456007   9.177255  10.252234  64.467065  -0.000026  18.542741   0.000109   2.100292  -0.632488   2.533533   6.833002   1.310893   5.655675  15.896708 -17.642229 -63.247105  -0.000085 -17.197890  -0.000134   1.295034  -3.901932  -6.272359 -13.717562  -6.283394  -8.106352  31.282326  -0.000315   0.000232  13.035566  -3.056171   9.874318   2.091795  -0.000553  -0.001076  -9.588685   0.403602   5.464390  17.411155  -0.000625   0.000449  21.933940   2.531720  -4.772350  -0.845863  -0.001060   0.000745
 -2.345832   1.021278   4.052424   4.865752   8.861911  -1.564410  -0.035880   3.711613  -0.751871   0.600102  -1.925084   0.333726  -4.322683  -0.175803  -1.886576   4.052175   1.070379  -4.265103   8.859690  10.165333  64.199903  -0.000075  18.587675   0.000035   2.020663  -0.611870   2.524296   6.621997   1.253826   5.537770  15.732672 -17.568246 -62.930986  -0.000191 -17.262762  -0.000199   1.292019  -3.814492  -6.331586 -14.046300  -6.197606  -8.042562  31.851814  -0.000227   0.001178  11.403556  -3.382161   9.480410   2.044567  -0.000594  -0.000899  -9.986187   0.219363   5.469403  19.010863  -0.000467   0.000183  20.779889   2.786159  -4.250529  -0.479711  -0.002538   0.001362
 -2.345772   1.009658   4.051343   4.836079   8.926124  -1.590608   0.360904   3.671761  -0.715272   0.482985  -1.853420   0.319317  -4.474817  -0.200303  -1.759538   3.943649   1.190301  -4.110654   8.545286  10.088940  63.914803  -0.000134  18.635371  -0.000001   1.943750  -0.562598   2.454941   6.407837   1.187846   5.442191  15.569234 -17.500062 -62.608763  -0.000317 -17.325275  -0.000233   1.287278  -3.728644  -6.345710 -14.372776  -6.105167  -7.977330  32.438048  -0.000257   0.001665   9.865776  -3.679448   9.103022   1.907106  -0.000843  -0.000779 -10.288163   0.055518   5.452425  20.680277  -0.000179  -0.000900  19.709510   3.016997  -3.757152  -0.131830  -0.003599   0.001627
 -2.345634   0.997338   4.050413   4.806878   8.958489  -1.617364   0.707953   3.627533  -0.667124   0.357047  -1.791148   0.316658  -4.616005  -0.223944  -1.638589   3.832667   1.307968  -3.980818   8.244163  10.020376  63.633403  -0.000187  18.682835  -0.000003   1.869614  -0.496332   2.348289   6.199242   1.118886   5.368728  15.412086 -17.437159 -62.291796  -0.000442 -17.384974  -0.000250   1.282636  -3.651528  -6.321983 -14.702371  -6.018986  -7.909196  32.986457  -0.000337   0.001848   8.428270  -3.947353   8.744068   1.779267  -0.000967  -0.000658 -10.509237  -0.091481   5.417597  22.284625   0.000172  -0.002143  18.712195   3.223355  -3.292570   0.201045  -0.004304   0.001677
 -2.345439   0.984326   4.049612   4.786155   8.979675  -1.646657   1.009065   3.575291  -0.610715   0.219119  -1.742318   0.323782  -4.750050  -0.246792  -1.524318   3.724364   1.419366  -3.866787   7.959423   9.958153  63.363359  -0.000227  18.728746   0.000014   1.798020  -0.421096   2.224027   5.996398   1.047195   5.313150  15.260265 -17.379869 -61.983472  -0.000556 -17.442412  -0.000257   1.277620  -3.585270  -6.269783 -15.032792  -5.939015  -7.837856  33.492075  -0.000414   0.001897   7.084421  -4.188982   8.403219   1.661405  -0.001014  -0.000557 -10.668574  -0.223740   5.368966  23.803789   0.000557  -0.003195  17.781025   3.407829  -2.855599   0.511372  -0.004680   0.001608
